<svg width="20" height="18" viewBox="0 0 20 18" fill="none" xmlns="http://www.w3.org/2000/svg">
<path d="M9.99999 18C9.35499 17.428 8.62599 16.833 7.85499 16.2H7.84499C5.12999 13.98 2.05299 11.468 0.693992 8.458C0.24751 7.49973 0.0108963 6.45713 -1.91116e-05 5.4C-0.00300091 3.94949 0.578763 2.55899 1.6138 1.54277C2.64884 0.526552 4.04978 -0.0296027 5.49999 2.75695e-06C6.68062 0.00186756 7.83583 0.343084 8.82799 0.983003C9.26396 1.26597 9.65841 1.60826 9.99999 2C10.3435 1.6098 10.738 1.26771 11.173 0.983003C12.1647 0.342957 13.3197 0.00172131 14.5 2.75695e-06C15.9502 -0.0296027 17.3511 0.526552 18.3862 1.54277C19.4212 2.55899 20.003 3.94949 20 5.4C19.9898 6.45882 19.7532 7.5032 19.306 8.463C17.947 11.473 14.871 13.984 12.156 16.2L12.146 16.208C11.374 16.837 10.646 17.432 10.001 18.008L9.99999 18ZM5.49999 2C4.5685 1.98835 3.67006 2.34485 2.99999 2.992C2.35438 3.62617 1.99355 4.49505 1.99991 5.4C2.01132 6.1705 2.18582 6.92985 2.51199 7.628C3.1535 8.92671 4.0191 10.1021 5.06899 11.1C6.05999 12.1 7.19999 13.068 8.18599 13.882C8.45899 14.107 8.73699 14.334 9.01499 14.561L9.18999 14.704C9.45699 14.922 9.73299 15.148 9.99999 15.37L10.013 15.358L10.019 15.353H10.025L10.034 15.346H10.039H10.044L10.062 15.331L10.103 15.298L10.11 15.292L10.121 15.284H10.127L10.136 15.276L10.8 14.731L10.974 14.588C11.255 14.359 11.533 14.132 11.806 13.907C12.792 13.093 13.933 12.126 14.924 11.121C15.974 10.1236 16.8397 8.94852 17.481 7.65C17.8131 6.9458 17.9901 6.17851 18 5.4C18.0042 4.49784 17.6435 3.6323 17 3C16.3312 2.34992 15.4326 1.99049 14.5 2C13.3619 1.99033 12.2739 2.46737 11.51 3.311L9.99999 5.051L8.48999 3.311C7.72606 2.46737 6.63807 1.99033 5.49999 2Z" fill="#C4C4C4"/>
</svg>
